<?xml version="1.0" standalone="no"?>
<!DOCTYPE svg PUBLIC "-//W3C//DTD SVG 20010904//EN"
 "http://www.w3.org/TR/2001/REC-SVG-20010904/DTD/svg10.dtd">
<svg version="1.0" xmlns="http://www.w3.org/2000/svg"
 width="210.000000pt" height="210.000000pt" viewBox="0 0 210.000000 210.000000"
 preserveAspectRatio="xMidYMid meet">
<metadata>
Created by potrace 1.11, written by Peter Selinger 2001-2013
</metadata>
<g transform="translate(0.000000,210.000000) scale(0.100000,-0.100000)"
fill="#000000" stroke="none">
<path d="M938 2025 c-2 -3 -36 -11 -74 -19 -80 -17 -191 -48 -249 -69 -101
-38 -269 -183 -365 -315 -57 -79 -128 -216 -141 -272 -4 -19 -16 -66 -26 -105
-32 -129 -17 -397 30 -530 19 -53 82 -177 124 -243 60 -95 232 -245 306 -268
12 -3 47 -19 77 -35 103 -53 212 -87 311 -96 216 -19 380 7 533 84 212 107
332 220 446 418 57 99 69 125 98 205 35 97 54 288 32 315 -6 7 -13 29 -15 47
-20 171 -36 215 -147 420 -58 107 -194 259 -253 284 -18 7 -46 24 -61 37 -16
14 -65 41 -109 62 -72 34 -98 41 -255 61 -174 23 -252 28 -262 19z m216 -84
c101 -8 115 -12 194 -52 108 -56 244 -186 317 -304 l50 -80 0 -240 0 -240 -38
-72 c-20 -40 -43 -73 -50 -74 -6 0 -32 -2 -56 -4 l-43 -3 6 31 c3 18 12 37 19
42 22 18 79 158 93 230 21 103 18 220 -6 274 -11 24 -20 52 -20 62 0 31 -38
99 -97 172 -75 93 -120 124 -268 187 -34 14 -197 40 -252 40 -29 0 -72 -9 -98
-20 -46 -20 -53 -40 -14 -40 47 0 75 -28 112 -109 20 -44 37 -84 37 -90 0 -5
11 -31 25 -58 14 -26 27 -64 30 -83 8 -59 63 -211 90 -246 14 -18 25 -43 25
-56 0 -13 7 -32 15 -42 8 -11 15 -29 15 -40 0 -11 9 -43 19 -71 11 -27 22 -61
25 -75 9 -45 28 -59 87 -66 45 -5 58 -3 73 11 21 21 22 20 29 -27 5 -34 3 -38
-34 -63 -78 -55 -177 -12 -195 82 -4 21 -15 49 -25 63 -10 14 -23 52 -29 85
-7 33 -23 82 -35 110 -12 27 -28 67 -35 88 -6 20 -15 37 -20 37 -18 0 -104
-180 -112 -235 -2 -11 -5 -22 -8 -25 -3 -3 -14 -25 -25 -49 -10 -24 -31 -59
-46 -78 -15 -19 -31 -47 -34 -64 -4 -16 -13 -29 -21 -29 -8 0 -14 -4 -14 -8 0
-4 -29 -8 -65 -7 -67 0 -75 4 -50 25 8 7 15 18 15 24 0 6 18 40 40 76 22 35
42 83 46 107 3 24 10 46 15 49 5 3 45 79 89 170 44 90 81 165 81 167 1 1 5 26
9 55 5 40 2 68 -12 109 -10 30 -15 59 -13 64 8 11 -42 89 -58 90 -97 7 -113 5
-139 -19 -26 -24 -48 -23 -48 1 0 7 16 37 35 67 19 29 33 56 30 58 -6 6 -103
-49 -118 -67 -10 -12 -9 -13 2 -6 10 5 12 4 7 -4 -4 -6 -11 -9 -16 -6 -5 3
-18 -3 -28 -13 -10 -10 -26 -21 -35 -25 -9 -3 -17 -13 -17 -20 0 -8 -20 -34
-44 -59 -89 -90 -131 -228 -123 -408 5 -125 22 -192 71 -272 21 -37 34 -48 54
-49 17 -1 21 -3 10 -6 -22 -5 -23 -19 -4 -30 8 -4 28 -27 45 -50 17 -24 50
-55 73 -70 24 -15 52 -35 63 -44 23 -20 100 -47 153 -55 73 -10 90 -15 107
-34 16 -17 17 -17 40 4 18 16 46 26 99 33 95 14 257 86 315 141 7 7 20 11 28
8 8 -4 17 4 23 19 5 14 11 25 12 25 2 0 3 -24 2 -52 -1 -29 2 -58 7 -64 11
-13 2 -44 -13 -44 -5 0 -6 5 -3 10 3 6 3 20 -1 32 -6 19 -8 17 -20 -18 -26
-77 -60 -91 -211 -84 -57 2 -159 -30 -192 -61 -13 -12 -21 -32 -21 -53 0 -51
-49 -98 -64 -60 -8 22 -26 7 -26 -22 0 -13 -5 -33 -12 -43 -19 -30 -4 -48 48
-55 26 -3 50 -3 53 0 3 3 5 29 4 57 -1 34 5 67 17 94 l19 41 77 -4 c73 -3 79
-5 105 -36 16 -18 28 -38 29 -45 0 -18 -90 -83 -116 -83 -15 0 -25 -8 -29 -22
-4 -13 -14 -37 -22 -54 -13 -29 -18 -32 -66 -33 -29 0 -80 -2 -113 -3 -57 -2
-65 1 -100 32 -53 46 -61 60 -35 67 56 14 -11 63 -86 63 -58 0 -81 18 -90 74
-4 28 -1 42 13 57 18 20 25 21 141 14 117 -7 123 -6 123 12 0 26 -24 47 -81
71 -36 16 -61 19 -114 16 -38 -3 -77 -10 -87 -15 -25 -14 -83 6 -103 34 -8 12
-16 33 -16 47 -1 17 -3 20 -6 7 -3 -10 0 -30 5 -45 11 -32 6 -52 -13 -52 -28
0 -45 43 -45 115 -1 86 -12 140 -39 176 -43 58 -61 160 -61 339 0 157 1 169
29 249 51 143 147 268 261 338 144 90 221 103 474 84z m-427 -243 c-2 -13 -4
-3 -4 22 0 25 2 35 4 23 2 -13 2 -33 0 -45z m160 26 c-3 -3 -12 -4 -19 -1 -8
3 -5 6 6 6 11 1 17 -2 13 -5z m-37 -8 c0 -2 -8 -10 -17 -17 -16 -13 -17 -12
-4 4 13 16 21 21 21 13z m117 -98 c-3 -8 -6 -5 -6 6 -1 11 2 17 5 13 3 -3 4
-12 1 -19z m-575 -73 c-19 -56 -49 -92 -49 -60 0 8 4 15 8 15 6 0 13 21 22 67
2 12 30 43 34 39 2 -2 -5 -30 -15 -61z m-162 -169 c0 -3 -4 -8 -10 -11 -5 -3
-10 -1 -10 4 0 6 5 11 10 11 6 0 10 -2 10 -4z m-10 -36 c0 -5 -4 -10 -10 -10
-5 0 -10 5 -10 10 0 6 5 10 10 10 6 0 10 -4 10 -10z m136 -236 c8 -20 14 -48
12 -63 -2 -21 -7 -13 -24 37 -22 66 -13 86 12 26z m811 -76 c-2 -13 -4 -3 -4
22 0 25 2 35 4 23 2 -13 2 -33 0 -45z m-767 -59 c0 -4 -4 -11 -10 -14 -5 -3
-10 0 -10 9 0 8 -3 23 -6 33 -5 16 -4 16 10 -1 9 -11 16 -23 16 -27z m1127
-42 c-6 -20 -27 -19 -27 2 0 14 5 19 15 14 9 -3 14 -10 12 -16z m-1105 -121
c-9 -18 -11 -16 -11 19 0 33 1 37 10 21 8 -12 8 -25 1 -40z m1167 2 c-16 -55
-27 -68 -22 -26 5 34 23 81 30 74 3 -2 -1 -24 -8 -48z m-305 -7 c15 -17 15
-19 1 -25 -10 -3 -14 -2 -10 5 4 5 1 16 -5 24 -18 22 -6 18 14 -4z m-524 -26
c0 -8 -2 -15 -4 -15 -2 0 -6 7 -10 15 -3 8 -1 15 4 15 6 0 10 -7 10 -15z
m-337 -57 c-3 -16 -9 -28 -14 -28 -11 0 -12 53 -2 64 12 12 22 -9 16 -36z m7
-95 c0 -7 -4 -13 -10 -13 -5 0 -10 6 -10 14 0 8 -3 23 -6 33 -6 16 -5 16 9 -2
9 -11 17 -26 17 -32z m90 -120 c-1 -24 -2 -26 -11 -10 -5 9 -7 22 -4 27 10 17
15 11 15 -17z m125 -3 c9 -17 11 -30 5 -30 -5 0 -10 6 -10 13 0 9 -2 9 -9 -1
-6 -11 -10 -11 -18 0 -14 18 -12 48 3 48 8 0 20 -13 29 -30z m581 -206 c11
-23 14 -38 7 -45 -7 -7 -15 5 -25 35 -18 54 -6 61 18 10z m-53 -56 c5 -17 -3
-48 -14 -48 -13 0 -18 15 -12 38 6 24 19 29 26 10z m-55 -36 c2 -14 -2 -22
-12 -22 -19 0 -28 14 -20 35 9 21 28 14 32 -13z m-170 -5 c2 -12 -3 -17 -17
-17 -12 0 -21 6 -21 13 0 31 32 34 38 4z m50 1 c-2 -13 -10 -23 -18 -23 -8 0
-16 10 -18 23 -3 17 2 22 18 22 16 0 21 -5 18 -22z m70 0 c-2 -13 -7 -23 -13
-23 -5 0 -11 10 -13 23 -2 15 2 22 13 22 11 0 15 -7 13 -22z"/>
</g>
</svg>
