<?xml version="1.0" standalone="no"?>
<!DOCTYPE svg PUBLIC "-//W3C//DTD SVG 20010904//EN"
 "http://www.w3.org/TR/2001/REC-SVG-20010904/DTD/svg10.dtd">
<svg version="1.0" xmlns="http://www.w3.org/2000/svg"
 width="296.000000pt" height="296.000000pt" viewBox="0 0 296.000000 296.000000"
 preserveAspectRatio="xMidYMid meet">
<metadata>
Created by potrace 1.11, written by Peter Selinger 2001-2013
</metadata>
<g transform="translate(0.000000,296.000000) scale(0.100000,-0.100000)"
fill="#000000" stroke="none">
<path d="M1566 2839 l-79 -41 -78 36 c-43 20 -92 36 -109 36 -31 0 -332 -144
-339 -162 -1 -5 -14 -21 -27 -35 -23 -25 -24 -32 -24 -175 l0 -148 -160 80
c-88 44 -169 80 -180 80 -11 0 -94 -37 -185 -82 -172 -86 -186 -98 -170 -147
3 -12 27 -32 53 -45 l46 -23 -42 -22 c-23 -12 -42 -26 -42 -31 0 -5 -11 -21
-25 -36 l-25 -27 0 -726 c0 -399 4 -731 8 -737 4 -6 82 -47 174 -91 203 -99
222 -101 338 -43 l76 38 69 -137 68 -138 156 -75 c161 -78 211 -98 249 -98 13
0 55 16 94 36 l72 36 62 -30 c47 -23 75 -31 119 -31 53 0 73 8 219 81 89 44
164 86 168 92 4 6 8 73 8 149 0 75 2 137 5 137 3 0 47 -16 98 -36 63 -24 103
-34 127 -31 26 3 42 -2 63 -20 16 -12 37 -23 48 -23 29 0 356 167 363 185 13
34 5 65 -24 98 -16 19 -30 37 -30 41 0 3 15 13 33 22 17 9 35 22 39 28 4 6 8
277 8 603 0 479 -3 594 -13 605 -8 7 -17 26 -21 42 -5 22 -2 33 13 48 17 15
21 31 21 88 0 45 -5 73 -14 82 -7 8 -16 23 -20 34 -7 23 -323 184 -361 184
-14 0 -65 -20 -113 -44 l-88 -44 -62 124 c-49 98 -67 125 -86 130 -14 3 -28
13 -31 23 -5 18 -324 181 -353 181 -9 -1 -52 -19 -96 -41z m-192 -53 l76 -35
0 -81 0 -81 -75 -35 -74 -34 -146 72 c-80 40 -145 75 -145 78 0 4 270 144 287
149 1 1 36 -14 77 -33z m441 -38 c80 -40 145 -75 145 -78 0 -3 -66 -38 -147
-79 l-147 -73 -78 38 -78 38 0 76 0 76 73 36 c39 20 75 37 79 37 4 1 73 -32
153 -71z m270 -238 c32 -65 57 -121 55 -123 -3 -3 -33 -19 -67 -36 l-63 -31 0
-98 c-1 -90 -3 -102 -34 -162 l-34 -65 -120 241 -121 241 157 77 c86 42 159
76 162 76 3 0 32 -54 65 -120z m-965 35 l150 -75 0 -232 0 -233 -155 155 -155
155 0 152 c0 84 2 153 5 153 3 0 73 -34 155 -75z m340 -144 l0 -128 79 -164
79 -164 -67 -34 -67 -33 -82 37 -82 38 0 258 0 259 58 29 c31 17 63 30 70 31
9 0 12 -32 12 -129z m123 98 l63 -32 132 -263 132 -264 -17 -35 c-9 -19 -20
-35 -25 -35 -4 0 -51 21 -104 48 l-97 47 -78 164 -79 164 0 118 c0 66 2 119 5
119 2 0 33 -14 68 -31z m1116 -194 c1 -2 -24 -17 -58 -34 l-60 -31 -181 0
-181 0 -60 31 c-34 17 -59 33 -56 35 3 3 70 39 148 79 l143 73 150 -75 c83
-41 153 -77 155 -78z m-1969 71 l145 -73 -62 -32 -62 -31 -181 0 -181 0 -62
31 -62 32 145 73 c80 40 152 73 160 73 8 0 80 -33 160 -73z m378 -502 l-143
-72 -5 166 -5 167 -45 24 c-25 13 -56 30 -69 39 l-25 15 55 28 54 28 163 -162
162 -162 -142 -71z m1042 336 c0 -3 -20 -16 -45 -28 l-45 -22 0 50 0 50 45
-22 c25 -12 45 -25 45 -28z m590 0 l0 -50 -45 22 c-25 12 -45 25 -45 28 0 5
73 46 88 49 1 1 2 -21 2 -49z m-1925 -57 c30 -15 55 -30 55 -33 0 -4 -67 -38
-150 -77 l-150 -71 -150 71 c-82 39 -150 74 -150 77 0 3 24 18 53 32 51 26 57
27 244 27 190 1 193 1 248 -26z m1830 0 c30 -15 55 -30 55 -33 0 -3 -69 -38
-154 -78 l-153 -74 -146 74 c-81 40 -147 75 -147 78 0 3 24 18 53 32 51 26 57
27 244 27 190 1 193 1 248 -26z m-439 -151 l151 -77 -148 -300 -149 -300 0
221 0 222 -70 36 -70 37 60 119 c33 66 63 120 68 119 4 0 75 -35 158 -77z
m-1808 -7 l152 -74 0 -276 c0 -247 2 -275 16 -275 9 0 97 79 196 175 l179 175
154 -78 c85 -42 154 -80 153 -84 -2 -4 -96 -111 -211 -238 -138 -154 -207
-239 -207 -254 0 -12 92 -217 204 -456 111 -239 202 -436 201 -438 -2 -2 -64
28 -140 65 l-137 68 -184 368 c-150 299 -188 367 -204 367 -19 0 -20 -7 -20
-260 0 -143 -2 -260 -4 -260 -2 0 -74 34 -160 76 l-156 76 0 699 c0 385 3 699
8 699 4 0 76 -34 160 -75z m512 -78 l0 -152 -155 -155 -155 -155 0 233 0 232
148 74 c81 41 150 75 155 75 4 1 7 -68 7 -152z m1797 136 c-28 -46 -417 -878
-417 -891 0 -10 97 -126 216 -257 l216 -239 -161 -80 -161 -81 -178 178 c-97
97 -185 177 -195 177 -16 0 -17 -20 -17 -275 l0 -275 -160 -80 -160 -80 0 703
0 703 158 78 157 77 3 -261 c2 -258 3 -261 23 -258 16 2 61 81 204 363 l184
359 143 73 c156 78 151 76 145 66z m33 -628 l0 -565 -41 -21 -42 -21 -27 29
c-15 15 -69 72 -119 126 l-91 98 0 137 0 137 157 323 c86 177 158 322 160 322
2 0 3 -254 3 -565z m-1363 444 l74 -41 -3 -76 -3 -76 -72 -38 -72 -39 -150 76
c-83 41 -151 77 -151 80 0 4 288 153 299 154 2 1 37 -17 78 -40z m441 -190
l-153 -77 -77 39 -78 39 0 75 0 75 77 39 78 39 152 -77 153 -76 -152 -76z
m-243 -91 l65 -32 0 -704 0 -703 -72 38 -72 38 -88 150 -87 150 0 450 -1 450
81 98 c44 53 86 97 94 97 8 0 44 -14 80 -32z m-221 -45 c-15 -21 -38 -51 -51
-66 -16 -20 -23 -41 -23 -71 0 -37 -6 -47 -52 -93 -38 -37 -81 -65 -150 -97
-54 -25 -98 -43 -98 -40 0 12 336 376 359 388 42 22 45 18 15 -21z m-85 -310
l0 -48 -16 32 c-13 26 -14 35 -3 48 18 22 20 20 19 -32z m1101 -48 c0 -46 -14
-60 -25 -26 -5 16 12 71 22 71 1 0 3 -20 3 -45z m-1131 -54 l41 -79 0 -276 0
-276 80 -139 c44 -76 80 -142 80 -148 0 -5 -29 -23 -64 -40 l-64 -32 -212 450
c-116 247 -210 454 -208 460 4 11 276 158 294 159 7 0 30 -36 53 -79z m-490
-528 c1 -10 -126 -83 -144 -83 -3 0 -5 87 -4 193 l0 192 74 -145 c41 -80 74
-151 74 -157z m1531 -57 c-3 -2 -52 15 -110 38 l-105 42 -3 75 -3 74 113 -112
c62 -62 110 -114 108 -117z"/>
</g>
</svg>
